<svg width="960" height="720" viewBox="0 0 960 720" fill="none" xmlns="http://www.w3.org/2000/svg">
  <rect width="960" height="720" rx="36" fill="#0B121B"/>
  <rect x="68" y="68" width="824" height="584" rx="28" fill="url(#bg)"/>
  <rect x="368" y="146" width="224" height="392" rx="40" fill="#1A2430"/>
  <rect x="430" y="108" width="96" height="58" rx="16" fill="#243241"/>
  <rect x="402" y="196" width="156" height="178" rx="20" fill="#F5F7FB"/>
  <rect x="402" y="390" width="156" height="110" rx="18" fill="#62D3B0"/>
  <path d="M590 236H640C676.451 236 706 265.549 706 302V394C706 430.451 676.451 460 640 460H590V236Z" fill="#2A3644"/>
  <path d="M462 258C471.147 234.307 488.853 234.307 498 258L520.864 317.256C528.15 336.134 514.207 356 493.971 356H446.029C425.793 356 411.85 336.134 419.136 317.256L442 258C451.147 234.307 468.853 234.307 478 258H462Z" fill="#0F1822"/>
  <defs>
    <linearGradient id="bg" x1="132" y1="100" x2="820" y2="632" gradientUnits="userSpaceOnUse">
      <stop stop-color="#131D28"/>
      <stop offset="1" stop-color="#081018"/>
    </linearGradient>
  </defs>
</svg>
